# xmcd
#
# Track frame offsets: 
#        150
#        18714
#        35256
#        50350
#        60798
#        76637
#        91188
#        111525
#        125270
#        139820
#        149497
#        167615
#        180808
#        199558
#
# Disc length: 2850 seconds
#
# Revision: 0
# Processed by: cddbd v1.5.2PL0 Copyright (c) Steve Scherf et al.
# Submitted via: ExactAudioCopy v0.99pb4
#
DISCID=ab0b200e
DTITLE=Шеянкина Ольга - Мальвина
DYEAR=1990
DGENRE=Pop
TTITLE0=Мальвина
TTITLE1=Ждать не буду
TTITLE2=Буратино
TTITLE3=Юлечка
TTITLE4=Остановите Землю
TTITLE5=Сияние звезд
TTITLE6=Прости, прости
TTITLE7=Сон (Ты не женись)
TTITLE8=Ты смотришь на меня
TTITLE9=Без тебя
TTITLE10=Прости моя Мальвина
TTITLE11=Отзвенело лето
TTITLE12=Море
TTITLE13=Не надо ко мне приходить
EXTD=
EXTT0=
EXTT1=
EXTT2=
EXTT3=
EXTT4=
EXTT5=
EXTT6=
EXTT7=
EXTT8=
EXTT9=
EXTT10=
EXTT11=
EXTT12=
EXTT13=
PLAYORDER=
